<svg width="600" height="600" viewBox="0 0 600 600" fill="none" xmlns="http://www.w3.org/2000/svg">
<rect width="600" height="600" rx="63" fill="#070707"/>
<path d="M452.312 312.344C457.801 312.344 461.739 313.537 464.126 315.924C466.751 318.311 468.064 321.413 468.064 325.232C468.064 331.437 466.155 336.927 462.336 341.7C458.756 346.473 453.028 348.979 445.152 349.218C426.059 349.695 409.113 348.263 394.316 344.922C377.371 380.483 356.845 410.078 332.74 433.706C308.873 457.095 284.887 468.79 260.782 468.79C235.961 468.79 217.464 454.351 205.292 425.472C193.12 396.593 187.034 357.571 187.034 308.406C187.034 266.401 190.017 228.691 195.984 195.278C198.132 182.867 201.115 174.514 204.934 170.218C208.991 165.683 215.793 163.416 225.34 163.416C241.092 163.416 248.968 170.218 248.968 183.822C248.968 185.254 248.729 187.879 248.252 191.698C241.092 234.658 237.512 273.561 237.512 308.406C237.512 344.922 240.495 372.727 246.462 391.82C252.667 410.675 261.856 420.102 274.028 420.102C286.439 420.102 299.923 411.51 314.482 394.326C329.041 377.142 342.406 355.543 354.578 329.528C340.019 320.459 329.041 308.764 321.642 294.444C314.243 279.885 310.544 263.179 310.544 244.324C310.544 225.469 313.408 209.598 319.136 196.71C325.103 183.583 333.098 173.798 343.122 167.354C353.385 160.91 364.721 157.688 377.132 157.688C392.407 157.688 404.459 163.177 413.29 174.156C422.359 185.135 426.894 200.171 426.894 219.264C426.894 246.711 420.927 276.663 408.994 309.122C421.643 311.27 436.083 312.344 452.312 312.344ZM346.702 241.818C346.702 265.207 354.22 282.511 369.256 293.728C378.564 266.997 383.218 244.921 383.218 227.498C383.218 217.474 381.905 210.195 379.28 205.66C376.655 200.887 373.075 198.5 368.54 198.5C362.096 198.5 356.845 202.319 352.788 209.956C348.731 217.355 346.702 227.975 346.702 241.818Z" fill="white"/>
</svg>
